<svg xmlns="http://www.w3.org/2000/svg" width="158.336" height="68.4" viewBox="0 0 158.336 68.4">
  <g id="Group_4" data-name="Group 4" transform="translate(-451.336 -575.128)">
    <g id="Group_1" data-name="Group 1" transform="translate(451.336 589.158)">
      <path id="Path_1" data-name="Path 1" d="M473.311,579.583v4.936a8.425,8.425,0,0,0-3.661-.8,11.493,11.493,0,0,0-6.372,1.912,13.559,13.559,0,0,0-4.738,5.533,19.137,19.137,0,0,0-1.789,8.558v17.839h-5.415V580.3h5.415v7.485a17.515,17.515,0,0,1,5.454-6.451,12.7,12.7,0,0,1,7.445-2.308A12.019,12.019,0,0,1,473.311,579.583Z" transform="translate(-451.336 -579.025)" fill="#585858"/>
      <path id="Path_2" data-name="Path 2" d="M495.141,580.3v37.265h-5.415v-5.494a16.6,16.6,0,0,1-5.656,4.976,15.247,15.247,0,0,1-7.323,1.793,18.129,18.129,0,0,1-9.558-2.549,17.736,17.736,0,0,1-6.606-7.089,23.537,23.537,0,0,1-.043-20.582,17.664,17.664,0,0,1,6.531-7.049,17.938,17.938,0,0,1,9.515-2.545,15.7,15.7,0,0,1,7.445,1.789,16.2,16.2,0,0,1,5.7,5.058V580.3Zm-11.747,31.689a12.861,12.861,0,0,0,4.659-5.332,18.656,18.656,0,0,0,0-15.448,12.892,12.892,0,0,0-4.659-5.335,12.349,12.349,0,0,0-6.808-1.912,12.021,12.021,0,0,0-6.689,1.912,13.024,13.024,0,0,0-4.615,5.3,17.1,17.1,0,0,0-1.674,7.683,17.549,17.549,0,0,0,1.674,7.805,12.946,12.946,0,0,0,4.615,5.332,12.024,12.024,0,0,0,6.689,1.912A12.351,12.351,0,0,0,483.393,611.988Z" transform="translate(-433.553 -579.025)" fill="#585858"/>
      <path id="Path_3" data-name="Path 3" d="M472.06,616.644V579.379h5.415v37.265Z" transform="translate(-397.555 -578.105)" fill="#585858"/>
      <path id="Path_4" data-name="Path 4" d="M505.856,579.379h5.1l-20.147,53.1h-5.415l5.893-15.181L476,579.379h5.656l12.341,30.839Z" transform="translate(-387.371 -578.105)" fill="#585858"/>
      <path id="Path_5" data-name="Path 5" d="M492.912,616.528a15.3,15.3,0,0,1-6.25-6.527l4.857-2.391q2.943,6.291,11.546,6.289a13.919,13.919,0,0,0,6.848-1.512,5.02,5.02,0,0,0,2.707-4.7,5.615,5.615,0,0,0-2.189-4.857q-2.193-1.593-7.683-2.07-7.647-.637-10.952-3.424a9.2,9.2,0,0,1-3.3-7.405,9.552,9.552,0,0,1,3.744-8.043q3.742-2.868,10.271-2.866,11.071,0,15.049,8.759l-4.857,2.387a9.584,9.584,0,0,0-3.942-4.7,13.04,13.04,0,0,0-6.646-1.512,11.112,11.112,0,0,0-6.333,1.512,5.172,5.172,0,0,0,.162,8.561q2.344,1.631,8.079,2.11,7.091.637,10.552,3.463a9.147,9.147,0,0,1,3.463,7.445,9.9,9.9,0,0,1-2.149,6.412,13.144,13.144,0,0,1-5.735,4.022,21.712,21.712,0,0,1-7.722,1.354A19.043,19.043,0,0,1,492.912,616.528Z" transform="translate(-359.698 -579.025)" fill="#585858"/>
    </g>
    <path id="Path_6" data-name="Path 6" d="M477.367,583.088H472.06l.428-1.325a9.984,9.984,0,0,1,8.788-6.635h5.307l-.428,1.328A9.986,9.986,0,0,1,477.367,583.088Z" transform="translate(53.774 0)" fill="#00a2ad"/>
  </g>
</svg>
